<svg width="765" height="888" viewBox="0 0 765 888" fill="none" xmlns="http://www.w3.org/2000/svg">
<path d="M693.585 686.191C692.403 686.649 691.082 686.555 689.957 685.894L672.915 676.035C671.79 675.374 671.022 674.271 670.859 672.972L668.036 653.513C667.839 652.226 668.257 650.966 669.137 650.02L682.664 635.615C683.088 635.148 683.628 634.787 684.219 634.558C684.81 634.329 685.452 634.232 686.079 634.291L705.769 635.78C707.057 635.886 708.215 636.535 708.936 637.618L719.968 653.894C720.69 654.977 720.9 656.297 720.514 657.544L714.571 676.313C714.173 677.527 713.274 678.52 712.092 678.978L693.585 686.191Z" fill="#6DD2D2"/>
<path d="M589.198 774.128C587.4 773.322 586.061 771.76 585.563 769.794L577.837 740.189C577.339 738.223 577.719 736.17 578.976 734.569L597.397 710.189C598.604 708.566 600.453 707.651 602.46 707.589L633.159 706.8C634.137 706.758 635.126 706.96 636.025 707.363C636.924 707.766 637.734 708.369 638.353 709.128L658.221 732.513C659.51 734.053 660.058 736.041 659.651 738.022L653.716 767.998C653.308 769.978 652.079 771.651 650.28 772.588L623.044 786.528C621.267 787.415 619.188 787.505 617.39 786.699L589.198 774.128Z" fill="#444141"/>
<path d="M695.67 849.801C692.776 848.505 690.62 845.991 689.818 842.826L677.383 795.173C676.581 792.009 677.193 788.703 679.216 786.127L708.867 746.884C710.809 744.272 713.785 742.8 717.016 742.699L766.43 741.43C768.005 741.361 769.597 741.688 771.044 742.336C772.491 742.984 773.794 743.955 774.791 745.176L806.77 782.818C808.846 785.296 809.728 788.497 809.072 791.685L799.52 839.934C798.863 843.123 796.885 845.815 793.989 847.323L750.149 869.761C747.289 871.189 743.942 871.333 741.048 870.037L695.67 849.801Z" fill="#444141"/>
<path d="M79.6958 827.742C70.8274 828.855 62.4048 829.913 62.5901 832.49C62.9218 837.1 89.486 843.493 108.299 845.374C127.112 847.254 154.508 846.632 155.782 842.189C156.494 839.706 148.469 836.936 140.02 834.02C132.304 831.357 124.234 828.571 122.14 825.77C120.711 823.857 121.343 820.485 121.805 818.017C121.871 817.664 121.934 817.33 121.987 817.021C122.408 814.552 124.852 806.715 124.852 806.715L100.162 804.145C100.162 804.145 100.94 812.317 100.844 814.82C100.832 815.134 100.824 815.474 100.816 815.833C100.76 818.343 100.684 821.773 98.892 823.35C96.2663 825.661 87.7952 826.724 79.6958 827.742Z" fill="#444141"/>
<path d="M101.356 818.845C100.749 821.902 99.5925 826.722 95.7753 831.112" stroke="#FFFCF3" stroke-width="3" stroke-linecap="round"/>
<ellipse cx="118.764" cy="745.309" rx="95.5043" ry="75.5381" transform="rotate(5.94176 118.764 745.309)" fill="#444141"/>
<path d="M76.959 785.274C74.6712 785.036 72.6165 783.792 71.3471 781.793L51.9878 751.775C50.7183 749.776 50.3916 747.36 51.2022 745.127L62.7451 711.372C63.4921 709.133 65.2095 707.445 67.4127 706.644L101.173 694.579C102.243 694.175 103.413 694.039 104.557 694.158C105.701 694.277 106.819 694.651 107.782 695.266L138.341 713.961C140.332 715.199 141.665 717.204 141.935 719.55L146.28 754.958C146.55 757.304 145.796 759.607 144.142 761.302L119.016 786.69C117.369 788.321 115.096 789.179 112.808 788.941L76.959 785.274Z" fill="#FFFCF3"/>
<path d="M106.898 700.235L134.111 716.883C135.884 717.985 137.071 719.771 137.312 721.86L141.181 753.391C141.421 755.48 140.75 757.531 139.277 759.04L116.902 781.649" stroke="#444141" stroke-width="3" stroke-linecap="round"/>
<circle cx="172.384" cy="731.657" r="10.992" transform="rotate(36.6896 172.384 731.657)" fill="#FFFCF3"/>
<path d="M175.551 727.407L169.217 735.908" stroke="#444141" stroke-width="3" stroke-linecap="round"/>
<circle cx="168.797" cy="766.119" r="10.992" transform="rotate(-42.3752 168.797 766.119)" fill="#FFFCF3"/>
<path d="M165.225 762.204L172.37 770.035" stroke="#444141" stroke-width="3" stroke-linecap="round"/>
<path d="M153.423 677.715C162.03 672.255 184.241 658.494 193.358 653.872C193.528 653.785 193.711 653.755 193.901 653.775L197.818 654.182" stroke="#444141" stroke-width="4" stroke-linecap="round"/>
<circle cx="202.425" cy="654.662" r="4.63206" transform="rotate(5.94176 202.425 654.662)" fill="#6DD2D2"/>
<path d="M98.767 672.027C91.4685 664.911 72.5674 646.871 64.5977 640.471C64.4488 640.351 64.2761 640.284 64.0863 640.264L60.1697 639.856" stroke="#444141" stroke-width="4" stroke-linecap="round"/>
<circle r="4.63206" transform="matrix(-0.994628 -0.103518 -0.103518 0.994628 55.5625 639.377)" fill="#6DD2D2"/>
<rect x="345.518" y="634.41" width="168.138" height="162.242" rx="5" transform="rotate(15.2989 345.518 634.41)" fill="#6DD2D2"/>
<rect x="351.988" y="645.877" width="149.604" height="111.023" rx="1" transform="rotate(15.2989 351.988 645.877)" stroke="#FFFCF3" stroke-width="3"/>
<rect x="369.492" y="667.66" width="104.342" height="78.2367" rx="14" transform="rotate(15.2989 369.492 667.66)" fill="#FFFCF3"/>
<path d="M495.706 685.666L323.274 752.667" stroke="#FFFCF3" stroke-width="3" stroke-linecap="round"/>
<path d="M352.331 646.446L466.649 791.887" stroke="#FFFCF3" stroke-width="3" stroke-linecap="round"/>
<circle cx="338.56" cy="779.161" r="9.37275" transform="rotate(15.2989 338.56 779.161)" fill="#FFFCF3"/>
<circle cx="338.56" cy="779.161" r="5.05887" transform="rotate(15.2989 338.56 779.161)" fill="#6DD2D2" stroke="#444141" stroke-width="3"/>
<circle cx="440.007" cy="806.912" r="9.37275" transform="rotate(15.2989 440.007 806.912)" fill="#FFFCF3"/>
<circle cx="440.007" cy="806.912" r="5.05887" transform="rotate(15.2989 440.007 806.912)" fill="#6DD2D2" stroke="#444141" stroke-width="3"/>
<ellipse cx="389.283" cy="793.037" rx="21.8525" ry="13.0772" transform="rotate(15.2989 389.283 793.037)" fill="#FFFCF3"/>
<path d="M414.202 791.223L368.757 778.791" stroke="#6DD2D2" stroke-width="3" stroke-linecap="round"/>
<path d="M412.741 796.565L367.296 784.134" stroke="#6DD2D2" stroke-width="3" stroke-linecap="round"/>
<path d="M411.279 801.908L365.834 789.477" stroke="#6DD2D2" stroke-width="3" stroke-linecap="round"/>
<path d="M409.818 807.251L364.373 794.82" stroke="#6DD2D2" stroke-width="3" stroke-linecap="round"/>
<path d="M643.98 323.053C639.501 320.897 634.122 322.78 631.967 327.259L567.853 460.452C566.724 462.797 566.666 465.515 567.693 467.907L570.506 474.457C571.533 476.848 571.474 479.567 570.345 481.912L565.796 491.364C563.64 495.843 565.523 501.221 570.002 503.377L713.891 572.64C718.37 574.795 723.748 572.912 725.904 568.434L730.454 558.982C731.583 556.637 733.671 554.895 736.181 554.206L743.055 552.319C745.565 551.63 747.654 549.889 748.782 547.544L812.896 414.351C815.052 409.872 813.169 404.494 808.69 402.338L643.98 323.053Z" fill="#444141"/>
<rect x="645.543" y="349.365" width="157.158" height="117.977" transform="rotate(25.7043 645.543 349.365)" fill="#FFFCF3"/>
<path d="M708.685 532.826L700.836 549.13" stroke="#444141" stroke-width="3"/>
<rect x="604.18" y="483.002" width="115.773" height="12.3054" transform="rotate(25.7043 604.18 483.002)" fill="#FFFCF3"/>
<path d="M695.427 522.598L687.579 538.902" stroke="#444141" stroke-width="3"/>
<path d="M680.666 515.492L672.818 531.796" stroke="#444141" stroke-width="3"/>
<path d="M665.905 508.387L658.057 524.691" stroke="#444141" stroke-width="3"/>
<rect x="645.543" y="349.365" width="22.4512" height="102.772" transform="rotate(25.7043 645.543 349.365)" fill="#FFFCF3"/>
<rect x="665.772" y="359.103" width="22.4512" height="102.772" transform="rotate(25.7043 665.772 359.103)" fill="#FCD977"/>
<rect x="686.002" y="368.84" width="22.4512" height="102.772" transform="rotate(25.7043 686.002 368.84)" fill="#6DD2D2"/>
<rect x="706.231" y="378.578" width="22.4512" height="102.772" transform="rotate(25.7043 706.231 378.578)" fill="#B7F3D3"/>
<rect x="726.461" y="388.316" width="22.4512" height="102.772" transform="rotate(25.7043 726.461 388.316)" fill="#FF9395"/>
<rect x="746.69" y="398.053" width="22.4512" height="102.772" transform="rotate(25.7043 746.69 398.053)" fill="#F65C5C"/>
<rect x="766.92" y="407.791" width="22.4512" height="102.772" transform="rotate(25.7043 766.92 407.791)" fill="#097992"/>
<rect width="22.4512" height="15.2053" transform="matrix(0.901044 0.433727 0.433727 -0.901044 594.373 455.668)" fill="#097992"/>
<rect width="22.4512" height="15.2053" transform="matrix(0.901044 0.433727 0.433727 -0.901044 614.602 465.405)" fill="#444141"/>
<rect width="22.4512" height="15.2053" transform="matrix(0.901044 0.433727 0.433727 -0.901044 634.832 475.143)" fill="#FF9395"/>
<rect width="22.4512" height="15.2053" transform="matrix(0.901044 0.433727 0.433727 -0.901044 655.061 484.881)" fill="#444141"/>
<rect width="22.4512" height="15.2053" transform="matrix(0.901044 0.433727 0.433727 -0.901044 675.291 494.618)" fill="#6DD2D2"/>
<rect width="22.4512" height="15.2053" transform="matrix(0.901044 0.433727 0.433727 -0.901044 695.52 504.356)" fill="#444141"/>
<rect width="22.4512" height="15.2053" transform="matrix(0.901044 0.433727 0.433727 -0.901044 715.75 514.093)" fill="#FFFCF3"/>
<path d="M735.982 525.008L593.452 456.399" stroke="#FFFCF3" stroke-width="3" stroke-linecap="round"/>
<path d="M787.611 417.751L645.081 349.143" stroke="#FFFCF3" stroke-width="3" stroke-linecap="round"/>
<circle cx="571.081" cy="148.67" r="83.4062" transform="rotate(16.5349 571.081 148.67)" fill="#444141"/>
<path d="M525.335 181.506C523.235 180.883 521.53 179.36 520.692 177.267L507.83 145.789C506.992 143.696 507.109 141.378 508.258 139.43L524.967 109.864C526.058 107.899 527.961 106.62 530.162 106.256L563.866 100.874C564.937 100.684 566.056 100.762 567.106 101.073C568.156 101.385 569.136 101.93 569.93 102.675L595.254 125.517C596.901 127.023 597.797 129.133 597.639 131.375L595.508 165.269C595.35 167.511 594.242 169.535 592.398 170.831L564.443 190.192C562.616 191.43 560.338 191.834 558.239 191.211L525.335 181.506Z" fill="#FFFCF3"/>
<path d="M575.423 105.464L563.32 107.208L536.252 111.53C534.302 111.852 532.617 112.985 531.651 114.725L516.856 140.905C515.838 142.63 515.735 144.682 516.477 146.535L527.866 174.408C528.608 176.261 530.118 177.61 531.977 178.162L572.338 190.088" stroke="#444141" stroke-width="3"/>
<path d="M635.52 145.297C633.452 138.687 629.354 133.941 622.445 133.617C615.846 133.307 610.228 138.8 609.895 145.886C609.807 147.759 610.015 150.416 610.498 153.011C610.982 155.606 611.669 160.198 609.129 163.675C606.59 167.152 604.571 169.544 604.061 170.472C600.646 176.689 602.57 184.307 608.36 187.488C614.142 190.664 621.656 186.644 625.438 183.031C629.22 179.417 633.265 173.605 635.256 166.52C637.486 158.588 637.587 151.907 635.52 145.297Z" fill="#FFFCF3"/>
<circle cx="621.49" cy="150.409" r="3.35403" transform="rotate(12.3383 621.49 150.409)" fill="#444141"/>
<circle cx="620.622" cy="162.084" r="3.35403" transform="rotate(12.3383 620.622 162.084)" fill="#444141"/>
<circle cx="616.611" cy="172.825" r="3.35403" transform="rotate(12.3383 616.611 172.825)" fill="#444141"/>
<path d="M617.861 112.413L637.817 45.1937" stroke="#4DB9C0" stroke-width="3"/>
<circle cx="639.397" cy="39.87" r="5.55332" transform="rotate(16.5349 639.397 39.87)" fill="#444141"/>
<path d="M626.327 111.943C623.86 112.686 621.155 112.741 618.5 111.953C615.437 111.043 612.93 109.157 611.22 106.734" stroke="#FFFCF3" stroke-width="3" stroke-linecap="round"/>
<path d="M629.86 144.541C631.233 147.425 633.994 153.974 630.928 164.299C627.863 174.624 621.171 179.963 621.171 179.963" stroke="#444141" stroke-width="3" stroke-linecap="round"/>
<path d="M533.247 112.566L522.802 104.443" stroke="#444141" stroke-width="3" stroke-linecap="round"/>
<path d="M515.809 143.392L505.259 141.966" stroke="#444141" stroke-width="3" stroke-linecap="round"/>
<path d="M529.837 177.527L518.855 180.983" stroke="#444141" stroke-width="3" stroke-linecap="round"/>
<rect x="288.053" y="107.794" width="72.8893" height="72.8893" rx="3" transform="rotate(15.6178 288.053 107.794)" fill="#444141"/>
<rect x="293.798" y="117.997" width="56.3288" height="45.5342" rx="3" transform="rotate(15.6178 293.798 117.997)" fill="#FFFCF3"/>
<rect x="279.944" y="167.56" width="35.3105" height="4.33018" rx="1" transform="rotate(15.6178 279.944 167.56)" fill="#FFFCF3"/>
<rect x="317.168" y="177.966" width="4.33018" height="4.33018" rx="1" transform="rotate(15.6178 317.168 177.966)" fill="#FFFCF3"/>
<rect x="324.556" y="180.031" width="4.33018" height="4.33018" rx="1" transform="rotate(15.6178 324.556 180.031)" fill="#FFFCF3"/>
<circle cx="107.443" cy="68.0982" r="2.76543" transform="rotate(-11.7535 107.443 68.0982)" fill="#6DD2D2"/>
<rect x="9.32433" y="127.916" width="142.941" height="96.1988" rx="6" transform="rotate(-11.7535 9.32433 127.916)" fill="#6DD2D2"/>
<rect x="26.8153" y="139.382" width="75.1667" height="66.6216" rx="6" transform="rotate(-11.7535 26.8153 139.382)" fill="#FFFCF3"/>
<circle cx="126.824" cy="131.708" r="7.95921" transform="rotate(18.5107 126.824 131.708)" fill="#FFFCF3"/>
<path d="M130.086 122.032L123.58 141.464" stroke="#6DD2D2" stroke-width="3" stroke-linecap="round"/>
<circle cx="131.529" cy="154.416" r="7.95921" transform="rotate(-49.1883 131.529 154.416)" fill="#FFFCF3"/>
<path d="M123.826 147.665L139.336 161.058" stroke="#6DD2D2" stroke-width="3" stroke-linecap="round"/>
<rect x="120.085" y="176.239" width="31.3034" height="11.236" transform="rotate(-11.7535 120.085 176.239)" fill="#444141"/>
<path d="M151.782 169.334L118.911 176.174" stroke="#6DD2D2" stroke-width="3" stroke-linecap="round"/>
<path d="M152.586 173.199L119.715 180.038" stroke="#6DD2D2" stroke-width="3" stroke-linecap="round"/>
<path d="M153.39 177.063L120.519 183.903" stroke="#6DD2D2" stroke-width="3" stroke-linecap="round"/>
<path d="M154.194 180.928L121.323 187.767" stroke="#6DD2D2" stroke-width="3" stroke-linecap="round"/>
<path d="M94.5725 113.197L107.443 68.0982" stroke="#6DD2D2" stroke-width="3" stroke-linecap="round"/>
<path d="M88.4346 113.779L77.4426 91.0305" stroke="#6DD2D2" stroke-width="3" stroke-linecap="round"/>
<circle cx="76.8456" cy="90.0843" r="2.34156" transform="rotate(-11.7535 76.8456 90.0843)" fill="#6DD2D2"/>
<path d="M35.5722 148.959L44.3089 190.949" stroke="#6DD2D2" stroke-width="3" stroke-linecap="round"/>
</svg>
