<svg width="270" height="87" viewBox="0 0 270 87" fill="none" xmlns="http://www.w3.org/2000/svg">
<path d="M115.412 51.7135C116.243 51.7135 117.063 51.8915 117.819 52.2356C118.575 52.5797 119.248 53.0819 119.793 53.7082C120.338 54.3346 120.743 55.0706 120.979 55.8666C121.216 56.6625 121.279 57.5 121.164 58.3224C121.058 61.1534 120.517 63.9513 119.56 66.618H114.417C114.833 64.5882 115.056 62.5234 115.081 60.4516C115.081 57.6864 114.942 54.9212 111.818 54.9212C109.384 54.9212 108.278 56.4973 108.278 58.9307C108.356 60.9699 108.625 62.9972 109.08 64.9865C106.813 64.9779 104.549 65.135 102.305 65.4566C102.775 60.3133 102.997 55.1977 102.997 49.9991C103.112 43.3643 102.881 36.728 102.305 30.1173C104.579 29.9392 106.841 29.6346 109.08 29.2047C108.509 34.5956 108.269 40.0163 108.361 45.4365C108.361 48.2017 108.361 50.1927 108.361 52.8473C113.117 46.4524 115.687 38.6954 115.689 30.7256C117.735 30.5873 119.837 30.3385 121.883 30.062C121.345 37.6673 119.136 45.0602 115.412 51.7135Z" fill="#444141"/>
<path d="M141.322 66.5351C140.077 65.3695 139.308 63.783 139.166 62.0831C138.537 63.1735 137.623 64.0717 136.522 64.6808C135.42 65.2899 134.174 65.5869 132.916 65.5396C126.943 65.5396 125.671 60.0092 125.671 54.8106C125.849 49.1816 126.779 43.6016 128.437 38.2194C129.93 38.2194 131.589 38.2194 133.082 38.2194C131.703 43.988 130.897 49.8789 130.676 55.8061C130.676 58.1288 130.676 61.8342 133.607 61.8342C137.396 61.8342 137.811 56.608 137.811 53.5386C137.811 48.7824 137.617 43.971 137.258 39.2148C139.213 39.1353 141.162 38.9321 143.092 38.6065C142.705 43.4732 142.484 48.3677 142.484 53.2344C142.143 57.3454 143.11 61.459 145.249 64.9865C143.894 65.5396 142.567 66.0097 141.322 66.5351Z" fill="#444141"/>
<path d="M156.089 65.1247C151.471 65.4012 149.148 61.5299 148.816 55.0041C148.816 52.8472 148.816 51.4093 148.816 49.2524C148.816 43.2796 148.816 37.445 148.54 31.5275C150.448 31.2509 152.134 30.8638 154.07 30.449C153.582 34.5047 153.342 38.5863 153.351 42.6712C153.795 41.5737 154.555 40.6328 155.535 39.9682C156.515 39.3035 157.67 38.945 158.854 38.9382C165.214 38.9382 165.933 46.0448 165.518 51.6029C164.993 60.0091 162.034 64.7652 156.089 65.1247ZM156.918 42.6712C153.628 42.9754 153.434 51.1881 153.434 53.1237C153.434 57.3821 153.766 62.9402 156.918 62.1936C160.07 61.447 160.706 55.6124 160.706 52.2112C160.596 47.3168 160.513 42.3671 156.808 42.6712H156.918Z" fill="#444141"/>
<path d="M178.929 65.0695C172.68 65.0695 169.693 59.2073 169.693 53.3174C169.693 46.7915 173.814 39.3254 180.754 39.3254C185.096 39.3254 187.474 42.8372 187.474 47.151C187.502 47.6668 187.502 48.1837 187.474 48.6995C183.344 48.7484 179.222 49.0902 175.141 49.7226C174.971 50.775 174.87 51.8372 174.837 52.9026C174.837 55.6678 175.473 61.7789 179.012 61.7789C182.054 61.7789 182.773 56.9121 182.773 54.5894C182.759 53.5068 182.675 52.4261 182.524 51.3541L186.506 50.9393C187.156 52.6065 187.502 54.3764 187.529 56.1655C187.574 57.3212 187.384 58.474 186.972 59.5544C186.559 60.6349 185.933 61.6207 185.129 62.4526C184.326 63.2845 183.362 63.9452 182.297 64.3949C181.231 64.8446 180.086 65.0741 178.929 65.0695V65.0695ZM179.593 42.5054C177.298 42.5054 176.33 44.3581 175.639 46.4597C178.049 46.3182 180.449 46.0413 182.828 45.6301C182.78 44.7982 182.42 44.0149 181.821 43.436C181.221 42.857 180.426 42.5248 179.593 42.5054V42.5054Z" fill="#444141"/>
<path d="M200.802 39.602C200.636 42.0354 200.608 44.4688 200.608 46.8745C200.613 52.9891 200.936 59.0992 201.576 65.1802C199.226 65.256 196.886 65.5242 194.58 65.9821C195.255 59.5519 195.596 53.0911 195.603 46.6256C195.603 44.1922 195.603 41.7036 195.465 39.2978C195.244 35.6478 192.893 35.7031 189.935 35.9796C189.975 35.2981 189.975 34.6148 189.935 33.9333C189.911 33.1286 189.847 32.3257 189.741 31.5276C190.764 31.5276 191.843 31.5276 192.866 31.5276C197.179 31.5286 201.489 31.3071 205.779 30.864C205.779 31.6659 205.779 32.4678 205.779 33.2697C205.793 34.028 205.849 34.7849 205.945 35.5372C202.931 35.6754 200.968 35.9519 200.802 39.602Z" fill="#444141"/>
<path d="M222.868 66.5351C221.623 65.3695 220.854 63.783 220.711 62.0831C220.083 63.1735 219.169 64.0717 218.068 64.6808C216.966 65.2899 215.72 65.5869 214.462 65.5396C208.489 65.5396 207.134 60.0092 207.134 54.8935C207.311 49.2645 208.241 43.6845 209.899 38.3023C211.393 38.3023 213.079 38.3023 214.573 38.3023C213.171 44.0675 212.356 49.9597 212.139 55.889C212.139 58.2118 212.139 61.9172 215.07 61.9172C218.859 61.9172 219.273 56.6909 219.273 53.6215C219.273 48.8654 219.08 44.0539 218.72 39.2978C220.676 39.2198 222.625 39.0166 224.555 38.6894C224.168 43.5562 223.947 48.4506 223.947 53.3174C223.619 57.4274 224.586 61.537 226.712 65.0695C225.44 65.5396 224.113 66.0097 222.868 66.5351Z" fill="#444141"/>
<path d="M237.524 65.1247C232.906 65.4012 230.583 61.5299 230.251 55.0041C230.251 52.8472 230.251 51.4093 230.251 49.2524C230.251 43.2796 230.251 37.445 229.975 31.5275C231.91 31.2509 233.57 30.8638 235.505 30.449C235.017 34.5047 234.777 38.5863 234.786 42.6712C235.253 41.5105 236.073 40.5258 237.13 39.856C238.187 39.1862 239.427 38.8652 240.676 38.9382C247.036 38.9382 247.783 46.0448 247.34 51.6029C246.538 60.0091 243.58 64.7652 237.524 65.1247ZM238.381 42.6712C235.063 42.9754 234.869 51.1881 234.869 53.1237C234.869 57.3821 235.201 62.9402 238.381 62.1936C241.146 61.53 242.142 55.6124 242.142 52.2112C242.142 47.3168 242.059 42.3671 238.381 42.6712V42.6712Z" fill="#444141"/>
<path d="M260.503 65.0695C254.226 65.0695 251.239 59.2073 251.239 53.3174C251.239 46.7915 255.359 39.3254 262.3 39.3254C266.641 39.3254 269.02 42.8372 269.02 47.151C269.048 47.6668 269.048 48.1837 269.02 48.6995C264.899 48.7471 260.786 49.089 256.714 49.7226C256.522 50.7725 256.411 51.8356 256.383 52.9026C256.383 55.6678 257.019 61.7789 260.586 61.7789C263.6 61.7789 264.319 56.9121 264.319 54.5894C264.304 53.5068 264.221 52.4261 264.07 51.3541L268.079 50.9393C268.729 52.6065 269.076 54.3764 269.102 56.1655C269.147 57.3212 268.958 58.474 268.545 59.5544C268.133 60.6349 267.506 61.6207 266.703 62.4526C265.899 63.2845 264.936 63.9452 263.87 64.3949C262.805 64.8446 261.659 65.0741 260.503 65.0695V65.0695ZM261.139 42.5054C258.871 42.5054 257.876 44.3581 257.184 46.4597C259.595 46.3182 261.995 46.0413 264.374 45.6301C264.326 44.8028 263.97 44.0234 263.377 43.4451C262.783 42.8669 261.995 42.5317 261.166 42.5054H261.139Z" fill="#444141"/>
<path d="M71.2797 75.6879C71.3002 75.7848 71.2929 75.8855 71.2587 75.9785C71.2244 76.0715 71.1646 76.1528 71.0861 76.2133C71.0047 76.2546 70.9147 76.2761 70.8234 76.2761C70.7321 76.2761 70.6421 76.2546 70.5607 76.2133C69.7937 75.7675 69.0715 75.2489 68.4039 74.6647L68.0167 74.3329L70.3118 73.4481C70.7083 74.1605 71.0326 74.9109 71.2797 75.6879V75.6879Z" fill="#4DB9C0"/>
<path d="M33.1475 20.5773L20.7594 5.00921C20.494 5.05514 20.2228 5.05514 19.9575 5.00921C19.6706 4.98379 19.3915 4.90211 19.1362 4.76885C18.8809 4.63558 18.6543 4.45333 18.4695 4.23251C18.2846 4.01168 18.145 3.7566 18.0587 3.48184C17.9724 3.20707 17.9411 2.918 17.9665 2.63113C17.9919 2.34425 18.0736 2.0652 18.2069 1.80989C18.3401 1.55458 18.5224 1.32801 18.7432 1.14314C18.964 0.958259 19.2191 0.818689 19.4939 0.732391C19.7686 0.646093 20.0577 0.614762 20.3446 0.640182C20.6307 0.661019 20.9097 0.738711 21.1654 0.868708C21.4211 0.998706 21.6483 1.1784 21.8337 1.39727C22.0191 1.61614 22.159 1.86979 22.2451 2.14338C22.3313 2.41697 22.362 2.70499 22.3355 2.9906C22.306 3.3142 22.2019 3.62655 22.0314 3.90312L34.8619 20.0243L33.1475 20.5773Z" fill="#4DB9C0"/>
<path d="M61.2418 7.60848C61.1327 8.08251 60.8704 8.50736 60.4955 8.81728C60.1206 9.1272 59.654 9.30491 59.1679 9.32291L58.2277 11.7839L54.55 13.8579L56.9004 16.8719L55.822 19.0011L54.0799 18.8076L54.9648 17.0655L52.1996 13.3601L57.011 10.5949L57.7023 8.65927C57.4223 8.41212 57.2132 8.09481 57.0966 7.74002C56.98 7.38522 56.96 7.00575 57.0387 6.64067C57.0968 6.35924 57.2098 6.09201 57.3711 5.85424C57.5325 5.61647 57.7391 5.41281 57.9792 5.25489C58.2193 5.09698 58.4881 4.9879 58.7704 4.93388C59.0526 4.87986 59.3427 4.88196 59.6242 4.94006C59.9056 4.99816 60.1728 5.11113 60.4106 5.2725C60.6484 5.43388 60.852 5.64051 61.0099 5.88059C61.1679 6.12067 61.2769 6.38951 61.3309 6.67175C61.385 6.95399 61.3829 7.2441 61.3248 7.52553L61.2418 7.60848Z" fill="#4DB9C0"/>
<path d="M20.5934 76.3516C19.9851 77.1535 19.2938 78.0383 18.6854 78.7573C18.1571 79.4653 17.5442 80.106 16.8604 80.6653C16.7785 80.72 16.6823 80.7492 16.5839 80.7492C16.4854 80.7492 16.3892 80.72 16.3074 80.6653C16.2224 80.6131 16.1523 80.5398 16.1039 80.4526C16.0555 80.3655 16.0303 80.2673 16.0308 80.1676C16.1533 79.2907 16.3665 78.4288 16.6668 77.5959C16.8604 76.9046 17.1646 76.075 17.4411 75.2455C18.4674 75.6805 19.5203 76.0499 20.5934 76.3516V76.3516Z" fill="#4DB9C0"/>
<path d="M34.862 20.1349L33.1475 20.5773L34.862 20.1349ZM20.5935 76.3515C19.521 76.0589 18.4681 75.6987 17.4412 75.2731Z" fill="#4DB9C0"/>
<path d="M91.1892 46.7361C89.6683 30.8086 67.9338 17.5079 42.9087 19.9136C17.8836 22.3194 -0.892157 39.5189 0.656358 55.4465C0.745349 56.331 0.893154 57.2086 1.09879 58.0735C1.09879 58.3224 1.23705 58.5712 1.32001 58.8201C1.40296 59.069 1.70713 60.0368 1.956 60.6175C2.20487 61.1982 2.14957 61.1152 2.26018 61.3364C2.61079 62.1205 3.0174 62.8783 3.47686 63.6039V63.6039C3.95324 64.3311 4.47992 65.0241 5.05303 65.6778C5.21894 65.899 5.41251 66.0926 5.57842 66.2862C5.74433 66.4797 6.49094 67.254 6.98868 67.7241L7.59702 68.2771C8.31597 68.8854 9.03493 69.4661 9.80919 70.0192H9.94745C10.6941 70.5446 11.496 71.0423 12.3255 71.54L13.1827 71.9825C13.8187 72.342 14.4824 72.6738 15.1737 73.0056L16.0862 73.4204C17.054 73.8352 18.0218 74.2223 19.0726 74.5818H19.3491C20.2893 74.9136 21.3124 75.2178 22.3079 75.4943L23.414 75.7985L25.875 76.3515L27.0088 76.6004C28.1702 76.8216 29.3592 77.0151 30.6035 77.1811C30.1335 78.4254 29.691 79.7527 29.3592 80.8588C28.8567 82.225 28.5134 83.6447 28.3361 85.0895C28.3296 85.2509 28.3675 85.4109 28.4455 85.5522C28.5234 85.6936 28.6386 85.8109 28.7785 85.8915C28.9172 85.9716 29.0746 86.0137 29.2348 86.0137C29.3949 86.0137 29.5523 85.9716 29.691 85.8915C30.8078 84.9436 31.8184 83.8774 32.7051 82.7115C33.9494 81.2736 35.4703 79.2273 36.6317 77.7341C38.4014 77.7341 40.1988 77.7341 42.0238 77.7341H42.7151C44.5955 77.7341 46.5035 77.5682 48.4391 77.3746C49.9323 77.3746 51.3979 77.0428 52.8358 76.8492L54.4673 76.5727L57.0389 76.1026L59.0575 75.6602L61.0485 75.1901L63.2883 74.5541L64.8368 74.084L67.2149 73.3098L68.4039 72.8673L70.8649 71.8719L71.7221 71.4847L74.2385 70.2957L74.7362 70.0192C75.6211 69.5491 76.5059 69.079 77.3355 68.5813C78.5522 69.6873 79.9072 70.8764 81.0409 71.8166C82.1643 72.8673 83.3972 73.7943 84.7186 74.5818C84.8553 74.6677 85.0134 74.7133 85.1749 74.7133C85.3363 74.7133 85.4945 74.6677 85.6311 74.5818C85.7545 74.4743 85.8457 74.3347 85.8945 74.1784C85.9434 74.0222 85.9479 73.8555 85.9076 73.6969C85.3604 72.2655 84.6848 70.8865 83.889 69.5767C83.253 68.3877 82.4235 67.0051 81.6216 65.7055C82.3958 65.0695 83.1424 64.4335 83.8337 63.7975L84.0273 63.6039C84.6633 62.9955 85.244 62.3596 85.797 61.7236L86.1565 61.3364C86.6266 60.7281 87.0967 60.1474 87.5391 59.539L87.9539 58.903C88.3134 58.35 88.6452 57.7693 88.977 57.1886L89.3918 56.3038C89.6503 55.7911 89.8811 55.265 90.0831 54.7276C90.0831 54.3405 90.332 53.9533 90.4426 53.5385C90.5972 53.0852 90.7264 52.6236 90.8297 52.1559C90.9532 51.6191 91.0364 51.0737 91.0786 50.5245C91.0786 50.165 91.0786 49.8055 91.0786 49.446C91.192 48.5475 91.229 47.6409 91.1892 46.7361V46.7361ZM55.5457 71.07C37.1847 72.8397 21.4784 65.9267 20.2617 53.0408C19.045 40.1549 32.6774 26.1354 51.0108 24.3656C69.3441 22.5959 85.4929 33.712 86.7096 46.4873C87.9262 59.2625 73.9343 69.2726 55.5457 71.07Z" fill="#4DB9C0"/>
<path d="M47.3606 65.9267C46.8731 66.0127 46.3727 65.9904 45.8948 65.8614C45.4169 65.7324 44.9733 65.4998 44.5954 65.1801L33.5345 55.5571C33.1769 55.2522 32.9029 54.8611 32.7384 54.4208C32.5739 53.9805 32.5243 53.5056 32.5944 53.0408L34.7512 38.9936C34.8309 38.5226 35.0234 38.0778 35.3123 37.6974C35.6013 37.317 35.978 37.0122 36.4104 36.8091L49.6557 29.8684C50.075 29.6493 50.5379 29.5264 51.0106 29.5089C51.48 29.4755 51.9511 29.5415 52.3932 29.7025L65.8598 34.5416C66.2783 34.6729 66.6595 34.9019 66.972 35.2096C67.2846 35.5173 67.5194 35.8949 67.6572 36.3113L71.9709 48.6165C72.1108 49.0182 72.1561 49.4467 72.1033 49.8687C72.0506 50.2908 71.9012 50.695 71.6667 51.0499L64.1454 62.3319C63.8864 62.7058 63.5545 63.0235 63.1695 63.2659C62.7846 63.5082 62.3547 63.6702 61.9056 63.7422L47.3606 65.9267Z" fill="#4DB9C0"/>
<path d="M75.6949 40.526C77.1695 40.3841 78.264 39.2215 78.1395 37.9294C78.0151 36.6372 76.7189 35.7048 75.2444 35.8468C73.7698 35.9888 72.6753 37.1514 72.7997 38.4435C72.9242 39.7356 74.2204 40.668 75.6949 40.526Z" fill="#4DB9C0"/>
<path d="M77.7604 46.3037C79.2349 46.1617 80.3294 44.9992 80.205 43.707C80.0806 42.4149 78.7843 41.4825 77.3098 41.6245C75.8353 41.7665 74.7408 42.9291 74.8652 44.2212C74.9896 45.5133 76.2858 46.4457 77.7604 46.3037Z" fill="#4DB9C0"/>
</svg>
