<svg width="110" height="27" viewBox="0 0 110 27" fill="none" xmlns="http://www.w3.org/2000/svg">
<path fill-rule="evenodd" clip-rule="evenodd" d="M100.024 5.84863H107.742C108.502 5.84863 109.118 6.46898 109.118 7.23413V19.7033C109.118 20.4685 108.502 21.089 107.742 21.089H100.024C99.2635 21.089 98.648 20.4685 98.648 19.7033V7.23413C98.648 6.46898 99.2635 5.84863 100.024 5.84863ZM103.85 16.407H102.24V10.6918H103.635C105.99 10.6918 105.947 16.407 103.85 16.407ZM103.584 9.10576H100.474V18.0391H103.584C108.541 18.0391 108.341 9.10576 103.584 9.10576Z" fill="#F4F0E5"/>
<path fill-rule="evenodd" clip-rule="evenodd" d="M89.1177 5.41736H96.8246C97.5847 5.41736 98.2002 6.0377 98.2002 6.80286V20.3319C98.2002 21.0971 97.5847 21.7176 96.8246 21.7176H89.1177C88.3584 21.7176 87.7422 21.0971 87.7422 20.3319V6.80286C87.7422 6.0377 88.3584 5.41736 89.1177 5.41736ZM90.2141 9.10594V18.0391H95.2003V16.5243H91.8188V14.2583H95.2003V12.8006H91.7899L91.7617 10.6359H95.2003V9.10594H90.2141Z" fill="#F4F0E5"/>
<path fill-rule="evenodd" clip-rule="evenodd" d="M78.2232 4.26715H85.8974C86.6568 4.26715 87.273 4.8875 87.273 5.65265V20.8352C87.273 21.6004 86.6568 22.2209 85.8974 22.2209H78.2232C77.4638 22.2209 76.8476 21.6004 76.8476 20.8352V5.65265C76.8476 4.8875 77.4638 4.26715 78.2232 4.26715ZM80.7049 17.9924H82.4461L82.4528 10.5923H84.3697V8.88778H78.6902V10.584L80.7153 10.5923L80.7049 17.9924Z" fill="#F4F0E5"/>
<path fill-rule="evenodd" clip-rule="evenodd" d="M67.2762 3.26575H75.0232C75.7825 3.26575 76.3987 3.88609 76.3987 4.65117V22.9935C76.3987 23.7579 75.7825 24.3784 75.0232 24.3784H67.2762C66.5169 24.3784 65.9007 23.7579 65.9007 22.9935V4.65117C65.9007 3.88609 66.5169 3.26575 67.2762 3.26575ZM69.8754 14.8008L70.8675 11.15L71.8597 14.8008H69.8754ZM71.8742 8.88783H69.7972L67.1031 17.9923H68.9377L69.439 16.4767H72.3043L72.7055 17.9923H74.5542L71.8742 8.88783Z" fill="#F4F0E5"/>
<path fill-rule="evenodd" clip-rule="evenodd" d="M56.4472 0.608215H64.031C64.7904 0.608215 65.4059 1.22856 65.4059 1.99371V25.1519C65.4059 25.9164 64.7904 26.5369 64.031 26.5369H56.4472C55.6872 26.5369 55.0717 25.9164 55.0717 25.1519V1.99371C55.0717 1.22856 55.6872 0.608215 56.4472 0.608215ZM62.2755 11.7903L63.6369 11.0543C62.6055 8.52852 60.2496 8.43537 58.5358 9.58218C56.616 10.8665 55.6994 16.2067 59.3812 17.9672C61.7883 18.8765 63.3641 17.13 63.6369 15.9031C62.9896 15.6003 62.1323 15.2685 62.1323 15.2685C61.201 17.8663 58.0056 15.9031 58.8021 12.6522C59.6534 9.17796 62.1605 11.0255 62.2755 11.7903Z" fill="#F4F0E5"/>
<path fill-rule="evenodd" clip-rule="evenodd" d="M53.1865 26.5369H45.4677C44.7084 26.5369 44.0922 25.9164 44.0922 25.1519V1.99371C44.0922 1.22856 44.7084 0.608215 45.4677 0.608215H53.1865C53.9466 0.608215 54.562 1.22856 54.562 1.99371V25.1519C54.562 25.9164 53.9466 26.5369 53.1865 26.5369ZM48.2195 17.9673H49.839V9.01959H48.2195V17.9673Z" fill="#F4F0E5"/>
<path fill-rule="evenodd" clip-rule="evenodd" d="M42.2909 24.3783H34.5417C33.7817 24.3783 33.1662 23.7579 33.1662 22.9934V4.59563C33.1662 3.83018 33.7817 3.21021 34.5417 3.21021H42.2909C43.051 3.21021 43.6665 3.83018 43.6665 4.59563V22.9934C43.6665 23.7579 43.051 24.3783 42.2909 24.3783ZM36.3556 9.01932V17.9671H40.9836V16.5525H37.9692V9.01932H36.3556Z" fill="#F4F0E5"/>
<path fill-rule="evenodd" clip-rule="evenodd" d="M31.4049 22.272H23.6053C22.846 22.272 22.2298 21.6515 22.2298 20.8863V5.70361C22.2298 4.93846 22.846 4.31812 23.6053 4.31812H31.4049C32.1643 4.31812 32.7805 4.93846 32.7805 5.70361V20.8863C32.7805 21.6515 32.1643 22.272 31.4049 22.272ZM27.9878 13.1903H26.498V10.6068H27.9878C29.4783 10.6068 29.4783 13.1903 27.9878 13.1903ZM28.7042 9.01909H24.8504V17.9673H26.5262V14.9004C32.03 15.4578 32.0285 9.50992 28.7042 9.01909Z" fill="#F4F0E5"/>
<path fill-rule="evenodd" clip-rule="evenodd" d="M20.3947 21.7279H12.7939C12.0345 21.7279 11.4183 21.1074 11.4183 20.3422V6.81322C11.4183 6.04814 12.0345 5.4278 12.7939 5.4278H20.3947C21.154 5.4278 21.7703 6.04814 21.7703 6.81322V20.3422C21.7703 21.1074 21.154 21.7279 20.3947 21.7279ZM13.818 9.10594V18.0393H18.8041V16.5244H15.4227V14.2584H18.8041V12.8007H15.3938L15.3656 10.6359H18.8041V9.10594H13.818Z" fill="#F4F0E5"/>
<path fill-rule="evenodd" clip-rule="evenodd" d="M9.60517 21.2969H1.7611C1.00175 21.2969 0.385529 20.6764 0.385529 19.9112V7.44226C0.385529 6.67711 1.00175 6.05676 1.7611 6.05676H9.60517C10.3652 6.05676 10.9807 6.67711 10.9807 7.44226V19.9112C10.9807 20.6764 10.3652 21.2969 9.60517 21.2969ZM5.94752 13.3418H4.47852V10.7956H5.94752C7.33866 10.7956 7.41652 13.3418 5.94752 13.3418ZM7.20912 14.6638C9.39594 14.0567 9.44562 9.18779 6.29702 9.18779H2.66048V18.1663H4.4921V14.9273H5.45388L6.80646 18.1663H8.91319L7.20912 14.6638Z" fill="#F4F0E5"/>
</svg>
