<svg width="193" height="185" viewBox="0 0 193 185" fill="none" xmlns="http://www.w3.org/2000/svg">
<circle cx="145.721" cy="4.31896" r="3.69772" fill="#6DD2D2"/>
<rect x="0.982788" y="55.9012" width="191.129" height="128.629" rx="6" fill="#6DD2D2"/>
<rect x="20.757" y="75.6754" width="100.507" height="89.081" rx="6" fill="#FFFCF3"/>
<circle cx="153.768" cy="92.8685" r="10.6424" transform="rotate(30.2642 153.768 92.8685)" fill="#FFFCF3"/>
<path d="M160.672 81.0897L146.863 104.756" stroke="#6DD2D2" stroke-width="3" stroke-linecap="round"/>
<circle cx="153.741" cy="123.877" r="10.6424" transform="rotate(-37.4348 153.741 123.877)" fill="#FFFCF3"/>
<path d="M145.496 112.94L162.152 134.698" stroke="#6DD2D2" stroke-width="3" stroke-linecap="round"/>
<rect x="132.816" y="149.328" width="41.8563" height="15.0239" fill="#444141"/>
<path d="M176.191 148.923H131.297" stroke="#6DD2D2" stroke-width="3" stroke-linecap="round"/>
<path d="M176.191 154.201H131.297" stroke="#6DD2D2" stroke-width="3" stroke-linecap="round"/>
<path d="M176.191 159.478H131.297" stroke="#6DD2D2" stroke-width="3" stroke-linecap="round"/>
<path d="M176.191 164.756H131.297" stroke="#6DD2D2" stroke-width="3" stroke-linecap="round"/>
<path d="M116.589 59.8521L145.721 4.31897" stroke="#6DD2D2" stroke-width="3" stroke-linecap="round"/>
<path d="M108.395 58.9417L100.202 26.1681" stroke="#6DD2D2" stroke-width="3" stroke-linecap="round"/>
<circle cx="99.6783" cy="24.7669" r="3.13095" fill="#6DD2D2"/>
<path d="M29.6121 90.597V147.945" stroke="#6DD2D2" stroke-width="3" stroke-linecap="round"/>
</svg>
