<svg width="158" height="201" viewBox="0 0 158 201" fill="none" xmlns="http://www.w3.org/2000/svg">
<circle cx="78.7969" cy="122.206" r="78.3532" fill="#444141"/>
<path d="M46.3784 164.008C44.3213 164.008 42.3785 163.092 41.0643 161.431L21.065 136.522C19.7508 134.861 19.2365 132.742 19.7508 130.681L26.8934 99.5874C27.3505 97.5259 28.7219 95.8653 30.6075 94.9491L59.5208 81.0915C60.4351 80.6334 61.4636 80.4044 62.4921 80.4044C63.5207 80.4044 64.5492 80.6334 65.4634 81.0915L94.3767 94.8918C96.2624 95.808 97.6337 97.4686 98.0909 99.5301L105.233 130.624C105.691 132.685 105.233 134.804 103.919 136.464L83.9199 161.374C82.6057 162.977 80.6629 163.951 78.6058 163.951L46.3784 164.008Z" fill="#FFFCF3"/>
<path d="M71.1562 82.1354L60.723 86.941L37.5013 98.0707C35.8316 98.882 34.6173 100.352 34.2125 102.178L27.8879 129.71C27.4326 131.536 27.8879 133.412 29.0517 134.882L46.7605 156.939C47.9242 158.409 49.6445 159.22 51.466 159.22L91.0025 159.17" stroke="#444141" stroke-width="3"/>
<path d="M135.927 101.94C132.298 96.5396 127.338 93.3616 121.029 94.917C115.004 96.4022 111.413 102.851 113.008 109.321C113.429 111.031 114.327 113.369 115.456 115.577C116.585 117.784 118.431 121.736 117.074 125.546C115.717 129.357 114.538 132.05 114.327 133.023C112.913 139.535 116.683 145.881 122.748 147.197C128.804 148.512 134.496 142.882 136.936 138.617C139.376 134.352 141.465 128.037 141.364 121.123C141.251 113.383 139.556 107.34 135.927 101.94Z" fill="#FFFCF3"/>
<circle cx="124.659" cy="110.295" r="3.15083" transform="rotate(-4.19662 124.659 110.295)" fill="#444141"/>
<circle cx="126.998" cy="121.041" r="3.15083" transform="rotate(-4.19662 126.998 121.041)" fill="#444141"/>
<circle cx="126.258" cy="131.787" r="3.15083" transform="rotate(-4.19662 126.258 131.787)" fill="#444141"/>
<path d="M111.232 77.0469L111.232 11.176" stroke="#4DB9C0" stroke-width="3"/>
<circle cx="111.232" cy="5.95913" r="5.21688" fill="#444141"/>
<path d="M118.731 74.3603C116.707 75.6887 114.286 76.4614 111.685 76.4614C108.683 76.4614 105.921 75.4327 103.733 73.7086" stroke="#FFFCF3" stroke-width="3" stroke-linecap="round"/>
<path d="M130.628 102.772C132.635 105.003 136.873 110.163 136.873 120.28C136.873 130.398 132.273 136.995 132.273 136.995" stroke="#444141" stroke-width="3" stroke-linecap="round"/>
<path d="M35.0723 99.8073L24.1388 94.4285" stroke="#444141" stroke-width="3" stroke-linecap="round"/>
<path d="M27.8326 132.453L17.5588 132.89" stroke="#444141" stroke-width="3" stroke-linecap="round"/>
<path d="M49.369 159.22L40.5387 165.486" stroke="#444141" stroke-width="3" stroke-linecap="round"/>
</svg>
