<svg width="29" height="29" viewBox="0 0 29 29" fill="none" xmlns="http://www.w3.org/2000/svg">
<g clip-path="url(#clip0)">
<path d="M28.8988 5.38783C27.8576 5.84458 26.7481 6.14733 25.5913 6.29433C26.7813 5.58383 27.6896 4.46733 28.1166 3.12158C27.0071 3.78308 25.7821 4.25033 24.4766 4.51108C23.4231 3.38933 21.9216 2.69458 20.2836 2.69458C17.1056 2.69458 14.5471 5.27408 14.5471 8.43633C14.5471 8.89133 14.5856 9.32883 14.6801 9.74533C9.9078 9.51258 5.68505 7.22533 2.8483 3.74108C2.35305 4.60033 2.06255 5.58383 2.06255 6.64258C2.06255 8.63058 3.0863 10.3928 4.6123 11.4131C3.69005 11.3956 2.7853 11.1278 2.0188 10.7061C2.0188 10.7236 2.0188 10.7463 2.0188 10.7691C2.0188 13.5586 4.00855 15.8756 6.6178 16.4093C6.15055 16.5371 5.6413 16.5983 5.1128 16.5983C4.7453 16.5983 4.3743 16.5773 4.02605 16.5003C4.7698 18.7736 6.8803 20.4448 9.3898 20.4991C7.4368 22.0268 4.95705 22.9473 2.27255 22.9473C1.8018 22.9473 1.3503 22.9263 0.898804 22.8686C3.44155 24.5083 6.45505 25.4446 9.7048 25.4446C20.2678 25.4446 26.0428 16.6946 26.0428 9.11008C26.0428 8.85633 26.0341 8.61133 26.0218 8.36808C27.1611 7.55958 28.1183 6.54983 28.8988 5.38783Z" fill="#444141"/>
</g>
<defs>
<clipPath id="clip0">
<rect width="28" height="28" fill="white" transform="translate(0.898804 0.0695801)"/>
</clipPath>
</defs>
</svg>
